<svg fill="none" height="48" viewBox="0 0 209 48" width="209" xmlns="http://www.w3.org/2000/svg"><g clip-rule="evenodd" fill-rule="evenodd"><path d="m55.3101 35.4004v-21.2256h2.2643l11.9867 16.4759v-16.4759h2.584v21.2256h-2.3133l-11.9381-16.4916v16.4916zm49.6479-5.0345v3.4239c-1.065.6471-2.153 1.1393-3.259 1.4759-1.105.3366-2.2016.5077-3.2846.5077-1.0435 0-2.0381-.1605-2.9833-.4765-.946-.3211-1.8381-.7925-2.6816-1.4194-1.3497-1.0307-2.4018-2.3514-3.1525-3.9518-.7503-1.6059-1.1275-3.3461-1.1275-5.2313 0-1.4245.2486-2.8072.7415-4.1488.4929-1.3362 1.1987-2.5122 2.1088-3.5117.9721-1.0722 2.0603-1.875 3.2633-2.4031 1.2075-.5338 2.5435-.798 4.0088-.798 1.0256 0 2.0381.1347 3.0451.4092 1.004.2746 2.06.7044 3.162 1.295v3.2995c-1.155-.7304-2.238-1.2693-3.255-1.6213-1.012-.3472-1.9976-.5231-2.9521-.5231-2.1265 0-3.8802.7716-5.27 2.3151-1.3895 1.5435-2.082 3.4757-2.082 5.801 0 2.3.6837 4.2164 2.051 5.7599 1.3674 1.5435 3.081 2.3151 5.1456 2.3151 1.0609 0 2.1305-.2071 3.2145-.6215 1.088-.4144 2.189-1.0465 3.307-1.8958zm2.873-16.1911h2.583v12.182c0 1.3574.063 2.3206.187 2.8851.129.5645.337 1.0568.635 1.4712.537.7407 1.172 1.2895 1.909 1.6573.737.3626 1.576.5439 2.513.5439 1.576 0 2.845-.4764 3.809-1.4245.963-.9529 1.443-2.2064 1.443-3.7653v-13.5497h2.584v13.6429c0 2.3617-.724 4.2781-2.172 5.7493-1.447 1.4708-3.334 2.2064-5.664 2.2064-1.381 0-2.624-.2849-3.734-.8545-1.11-.5752-2.042-1.4088-2.806-2.5122-.471-.6578-.799-1.3882-.994-2.1961-.196-.8079-.293-2.0511-.293-3.7293zm22.055 11.8715v6.5883h3.463c1.266 0 2.189-.2591 2.771-.7822.585-.523.879-1.3364.879-2.4497 0-1.1552-.329-2.0045-.982-2.5434-.652-.5436-1.682-.813-3.085-.813zm-2.583 9.3541v-21.2256h5.327c1.816 0 3.214.4816 4.195 1.44.986.9632 1.479 2.3254 1.479 4.0968 0 1.0931-.222 2.0045-.662 2.7298-.443.7301-1.118 1.2895-2.028 1.6833 1.322.3678 2.348 1.0308 3.072 1.9887.723.9636 1.083 2.129 1.083 3.5066 0 1.7611-.551 3.1648-1.656 4.2109-1.106 1.0465-2.602 1.5695-4.493 1.5695zm2.583-12.1199h1.759c1.327 0 2.312-.2797 2.952-.834.643-.5542.963-1.4036.963-2.5484 0-1.041-.253-1.8023-.759-2.2736-.511-.4768-1.318-.715-2.429-.715h-2.486zm16.311 3.1387h5.67l-2.872-7.6451zm-5.998 8.9812 7.885-21.2256h1.896l7.987 21.2256h-2.691l-2.344-6.2466h-7.751l-2.313 6.2466zm22.114 0v-18.4597h-6.686v-2.7659h15.956v2.7659h-6.686v18.4597zm13.181-10.5922c0 1.0828.174 2.1187.52 3.0976.346.979.848 1.8489 1.496 2.6102.635.7565 1.376 1.3416 2.233 1.7509.852.4092 1.745.6163 2.673.6163.95 0 1.847-.202 2.686-.601.835-.3986 1.585-.9892 2.242-1.7662.648-.7613 1.15-1.6312 1.5-2.6102.351-.9789.529-2.0148.529-3.0976 0-1.0825-.174-2.1029-.52-3.0712-.346-.9635-.861-1.8492-1.536-2.6468-.648-.7823-1.394-1.3725-2.238-1.7817-.839-.4093-1.726-.6164-2.663-.6164-.906 0-1.776.2071-2.624.6215-.844.4144-1.607 1.0046-2.282 1.7766-.648.7356-1.15 1.6004-1.496 2.595-.346.9893-.52 2.0303-.52 3.123zm-2.77-.1138c0-1.4139.249-2.7918.741-4.1228.493-1.3365 1.199-2.5173 2.109-3.5377.928-1.041 1.976-1.8335 3.148-2.3826 1.168-.544 2.402-.8185 3.694-.8185 1.314 0 2.566.2745 3.752.8288 1.18.5491 2.223 1.3416 3.125 2.3723.945 1.0722 1.656 2.2688 2.135 3.5792.475 1.3155.715 2.7449.715 4.2832 0 1.4451-.244 2.8333-.737 4.1643-.489 1.3313-1.185 2.5019-2.087 3.5116-.945 1.0516-1.997 1.8493-3.165 2.3881-1.168.5437-2.415.8131-3.738.8131-1.292 0-2.531-.2798-3.716-.834-1.181-.5594-2.224-1.3467-3.126-2.3672-.936-1.0615-1.647-2.2633-2.126-3.5942-.484-1.3365-.724-2.7661-.724-4.2836zm22.291 10.706v-21.2256h5.328c1.838 0 3.258.5077 4.257 1.5175.999 1.0102 1.497 2.445 1.497 4.2938 0 1.3986-.275 2.5225-.822 3.3719-.55.8493-1.411 1.4866-2.597 1.9112.306.1916.591.4456.862.7668.27.3157.617.8494 1.043 1.6004l4.417 7.764h-3.148l-3.12-5.5679c-.937-1.6782-1.692-2.7504-2.269-3.2114-.573-.4662-1.261-.6992-2.055-.6992h-.782v9.4785zm2.611-12.0266h2.158c1.212 0 2.117-.2746 2.721-.8186.6-.5491.901-1.3827.901-2.507 0-1.1548-.284-1.9888-.857-2.5118-.572-.5231-1.495-.7822-2.765-.7822h-2.158z" fill="#000"/><path d="m51.023 6.34448c1.55 0 2.8068 1.2524 2.8068 2.79699 0 1.54463-1.2568 2.79693-2.8068 2.79693-1.5501 0-2.8069-1.2523-2.8069-2.79693 0-1.54459 1.2568-2.79699 2.8069-2.79699z" fill="#ff0808"/><g fill="#000"><path d="m60.6823.664425c-12.9333 0-23.4178 10.447875-23.4178 23.335775 0 12.8875 10.4845 23.3354 23.4178 23.3354 12.9335 0 23.4183-10.4479 23.4183-23.3354 0-12.8879-10.4848-23.335775-23.4183-23.335775zm-24.0846 23.335775c0-13.2548 10.783-24.0002 24.0846-24.0002 13.3017 0 24.085 10.7454 24.085 24.0002 0 13.2544-10.7833 23.9998-24.085 23.9998-13.3016 0-24.0846-10.7454-24.0846-23.9998z"/><path d="m49.7365 14.178h2.5727v21.2089h-2.5727z"/><path d="m0 35.4179v-21.1816h3.10743v21.1816zm13.6985 0v-18.4213h-7.95949v-2.7603h18.99429v2.7603h-7.9591v18.4213z"/><path d="m28.569 22.78c1.5504 0 2.8069 1.252 2.8069 2.797s-1.2565 2.797-2.8069 2.797-2.8069-1.252-2.8069-2.797 1.2565-2.797 2.8069-2.797z"/></g></g></svg>